<?xml version="1.0" encoding="UTF-8" standalone="no"?>
<svg
   height="24"
   viewBox="0 -960 960 960"
   width="24"
   version="1.1"
   id="svg1"
   sodipodi:docname="logo.svg"
   inkscape:version="1.3 (0e150ed6c4, 2023-07-21)"
   xmlns:inkscape="http://www.inkscape.org/namespaces/inkscape"
   xmlns:sodipodi="http://sodipodi.sourceforge.net/DTD/sodipodi-0.dtd"
   xmlns="http://www.w3.org/2000/svg"
   xmlns:svg="http://www.w3.org/2000/svg">
  <defs
     id="defs1" />
  <sodipodi:namedview
     id="namedview1"
     pagecolor="#ffffff"
     bordercolor="#000000"
     borderopacity="0.25"
     inkscape:showpageshadow="2"
     inkscape:pageopacity="0.0"
     inkscape:pagecheckerboard="0"
     inkscape:deskcolor="#d1d1d1"
     inkscape:zoom="35.875"
     inkscape:cx="11.986063"
     inkscape:cy="8.4599303"
     inkscape:window-width="2560"
     inkscape:window-height="1057"
     inkscape:window-x="-8"
     inkscape:window-y="-8"
     inkscape:window-maximized="1"
     inkscape:current-layer="svg1" />
  <path
     d="M160-120v-480l320-240 320 240v80H520q-33 0-56.5 23.5T440-440v160q0 33 23.5 56.5T520-200h280v80H160Zm360-120q-17 0-28.5-11.5T480-280v-160q0-17 11.5-28.5T520-480h160q17 0 28.5 11.5T720-440v40l80-42v164l-80-42v40q0 17-11.5 28.5T680-240H520Z"
     id="path1"
     style="fill:#ffffff;fill-opacity:1" />
  <path
     style="fill:#ffffff;stroke:#ffffff;stroke-width:0.0279185;stroke-opacity:0;fill-opacity:1"
     d="M 4.0151498,14.989547 4.0163623,9.0034843 7.9966316,6.0209059 C 10.18578,4.3804878 11.98837,3.0391334 12.002388,3.0401183 c 0.01402,9.85e-4 1.815533,1.3431453 4.003368,2.9825786 L 19.983638,9.0034843 19.98485,10 l 0.0012,0.996516 -3.630662,4.84e-4 c -4.056839,5.41e-4 -3.829652,-0.01014 -4.256046,0.200104 -0.329419,0.16243 -0.719677,0.5466 -0.886408,0.872582 -0.22787,0.445518 -0.216431,0.290838 -0.216431,2.92683 0,2.151456 0.004,2.355912 0.04918,2.519511 0.156094,0.565051 0.564102,1.050941 1.093672,1.302439 0.431234,0.204796 0.118175,0.189901 4.188153,0.199271 l 3.658537,0.0084 v 0.974726 0.974725 H 12 4.0139373 Z"
     id="path2"
     transform="matrix(40,0,0,40,0,-960)" />
  <path
     style="fill:#ffffff;stroke:#ffffff;stroke-width:0.0279185;stroke-opacity:0;fill-opacity:1"
     d="m 12.739593,17.948408 c -0.292435,-0.07859 -0.516876,-0.271881 -0.649588,-0.559432 l -0.06213,-0.134621 v -2.257839 -2.25784 l 0.06075,-0.131491 c 0.08041,-0.174063 0.29648,-0.401455 0.460374,-0.484507 0.07259,-0.03678 0.217089,-0.07919 0.32111,-0.09423 0.249428,-0.03607 4.002633,-0.03618 4.251936,-1.25e-4 0.358293,0.05181 0.623699,0.242252 0.768686,0.551563 0.07283,0.155368 0.07461,0.172442 0.08286,0.792933 0.0046,0.348781 0.0178,0.634147 0.02925,0.634147 0.01145,0 0.45923,-0.23015 0.995059,-0.511444 l 0.974235,-0.511443 0.0073,1.01524 c 0.004,0.558381 0.004,1.465463 0,2.015736 l -0.0073,1.000497 -0.956208,-0.502261 c -0.525914,-0.276243 -0.973503,-0.508898 -0.994642,-0.517009 -0.03183,-0.01222 -0.03995,0.09693 -0.04728,0.635598 -0.0083,0.613748 -0.01246,0.657619 -0.07314,0.779577 -0.142504,0.286424 -0.373524,0.473802 -0.67027,0.543648 -0.24268,0.05712 -4.275911,0.0511 -4.490998,-0.0067 z"
     id="path3"
     transform="matrix(40,0,0,40,0,-960)" />
  <path
     style="fill:#ffffff;stroke:#ffffff;stroke-width:0.0279185;stroke-opacity:0;fill-opacity:1"
     d="m 13.602787,17.966423 c -0.843786,-0.01602 -0.851357,-0.01669 -1.007608,-0.08948 -0.199457,-0.09292 -0.361175,-0.254202 -0.468933,-0.46767 L 12.041816,17.24201 V 14.996384 12.75076 l 0.06963,-0.137417 c 0.14053,-0.277322 0.371925,-0.472357 0.64472,-0.543411 0.137082,-0.03571 0.475297,-0.04195 2.239237,-0.04138 1.269302,4.16e-4 2.124313,0.01142 2.197389,0.02827 0.297798,0.06869 0.530916,0.246242 0.66525,0.506672 0.07169,0.138977 0.07712,0.176434 0.09626,0.662979 0.01116,0.283624 0.0213,0.576724 0.02254,0.651334 0.002,0.122465 0.0078,0.134206 0.05928,0.120743 0.03136,-0.0082 0.471391,-0.230266 0.977837,-0.493475 0.506446,-0.263209 0.926165,-0.473208 0.932709,-0.466663 0.0065,0.0065 0.0087,0.896898 0.0047,1.978564 l -0.0072,1.966666 -0.418119,-0.221203 c -0.957292,-0.506449 -1.51626,-0.78858 -1.531725,-0.773114 -0.009,0.009 -0.02639,0.309925 -0.03853,0.668612 -0.01974,0.583096 -0.02828,0.663967 -0.08062,0.763658 -0.102982,0.196127 -0.251413,0.341433 -0.44727,0.437853 l -0.186396,0.09176 -0.80895,0.01848 c -0.91404,0.02088 -1.599006,0.02009 -2.829856,-0.0033 z"
     id="path4"
     transform="matrix(40,0,0,40,0,-960)" />
</svg>
